<?xml version="1.0" encoding="utf-8"?>
<svg width="15px" height="17px" viewBox="0 0 15 17" version="1.1" xmlns:xlink="http://www.w3.org/1999/xlink" xmlns="http://www.w3.org/2000/svg">
  <desc>Created with Lunacy</desc>
  <path d="M10.3983 0.135504L10.4 0.136651C10.7388 0.37389 10.8211 0.840873 10.5839 1.17969L9.36784 2.91638C10.1573 3.16863 10.6952 3.4407 10.6952 3.4407C10.6952 3.4407 9.3805 5.70218 7.15057 5.70218C4.92063 5.70218 3.33609 3.59442 3.33609 3.59442C3.33609 3.59442 3.89793 3.23586 4.7308 2.92833L3.40669 1.35031C3.14082 1.03347 3.18215 0.561084 3.49899 0.295218L3.50053 0.293933C3.81737 0.0280668 4.28976 0.0693948 4.55562 0.386242L6.24979 2.40527C6.28321 2.4451 6.31177 2.48738 6.33555 2.5314C6.53453 2.50824 6.73744 2.49525 6.94226 2.49525C7.2296 2.49525 7.51661 2.51724 7.79669 2.55453C7.81062 2.52857 7.82624 2.50315 7.84356 2.47842L9.35531 0.319419C9.59255 -0.0193938 10.0595 -0.101735 10.3983 0.135504ZM2.30007 4.275C2.30007 4.275 3.20052 5.38427 3.7956 5.80927C4.39068 6.23426 5.65279 6.66946 5.65279 6.66946C5.65279 6.66946 6.8091 9.37012 6.3427 11.8023C5.87631 14.2345 3.97643 16.1532 3.97643 16.1532C3.97643 16.1532 0 13.8272 0 9.96241C0 6.09766 2.30007 4.275 2.30007 4.275ZM11.6999 4.275C11.6999 4.275 10.7995 5.38427 10.2044 5.80927C9.60932 6.23426 8.34721 6.66946 8.34721 6.66946C8.34721 6.66946 7.1909 9.37012 7.6573 11.8023C8.1237 14.2345 10.0236 16.1532 10.0236 16.1532C10.0236 16.1532 14 13.8272 14 9.96241C14 6.09766 11.6999 4.275 11.6999 4.275Z" transform="translate(0.25 0.25)" id="Path-3" fill="#FFFFFF" fill-rule="evenodd" stroke="none" />
</svg>