<?xml version="1.0" encoding="utf-8"?>
<svg width="11px" height="15px" viewBox="0 0 11 15" version="1.1" xmlns:xlink="http://www.w3.org/1999/xlink" xmlns="http://www.w3.org/2000/svg">
  <desc>Created with Lunacy</desc>
  <path d="M3.21716 14C7.08316 14 10.2172 10.866 10.2172 7C10.2172 3.13401 7.08316 0 3.21716 0C2.05726 0 0.963256 0.28211 8.83059e-06 0.781457C1.0043 0.821325 1.93831 1.18346 2.72806 1.78178C2.92062 1.76078 3.11624 1.75 3.31439 1.75C6.26757 1.75 8.66161 4.14403 8.66161 7.09722C8.66161 10.0504 6.26757 12.4444 3.31439 12.4444C3.03703 12.4444 2.76461 12.4233 2.49864 12.3826C1.75983 12.8826 0.908694 13.1825 1.50078e-05 13.2185C0.963256 13.7179 2.05726 14 3.21716 14Z" transform="translate(0.25 0.25)" id="Oval-7" fill="#FFFFFF" fill-rule="evenodd" stroke="none" />
</svg>