<?xml version="1.0" encoding="utf-8"?>
<svg width="16px" height="16px" viewBox="0 0 16 16" version="1.1" xmlns:xlink="http://www.w3.org/1999/xlink" xmlns="http://www.w3.org/2000/svg">
  <desc>Created with Lunacy</desc>
  <path d="M3.21489 12.1189L5.48357 11.4611L7.52284 15.1897C7.58686 15.3068 7.69067 15.3068 7.75469 15.1897L9.79396 11.4611L12.0626 12.1189C12.1908 12.1561 12.264 12.0825 12.2261 11.9545L11.5694 9.73472L15.1897 7.75469C15.3068 7.69067 15.3068 7.58686 15.1897 7.52284L11.5379 5.52559L12.2261 3.19937C12.264 3.07142 12.1908 2.99783 12.0626 3.03498L9.73559 3.70973L7.75469 0.087796C7.69067 -0.0292672 7.58686 -0.0292672 7.52284 0.087796L5.54194 3.70973L3.21489 3.03498C3.08674 2.99783 3.01354 3.07142 3.05139 3.19937L3.73962 5.52559L0.0877962 7.52284C-0.0292673 7.58686 -0.0292673 7.69067 0.0877957 7.75469L3.70814 9.73472L3.05139 11.9545C3.01354 12.0825 3.08674 12.1561 3.21489 12.1189ZM5.12644 7.77503L6.68872 8.62947L7.54316 10.1918C7.60719 10.3088 7.71099 10.3088 7.77501 10.1918L8.62945 8.62947L10.1917 7.77503C10.3088 7.711 10.3088 7.6072 10.1917 7.54318L8.62945 6.68874L7.77501 5.12645C7.71099 5.00939 7.60719 5.00939 7.54316 5.12645L6.68872 6.68874L5.12644 7.54318C5.00938 7.6072 5.00938 7.711 5.12644 7.77503Z" transform="translate(0.25 0.25)" id="Star" fill="#FFFFFF" fill-rule="evenodd" stroke="none" />
</svg>