<?xml version="1.0" encoding="utf-8"?>
<svg width="41px" height="41px" viewBox="0 0 41 41" version="1.1" xmlns:xlink="http://www.w3.org/1999/xlink" xmlns="http://www.w3.org/2000/svg">
  <desc>Created with Lunacy</desc>
  <g id="moves" transform="translate(1 1)">
    <path d="M0 19.5C0 8.73045 8.73045 0 19.5 0C30.2696 0 39 8.73045 39 19.5C39 30.2696 30.2696 39 19.5 39C8.73045 39 0 30.2696 0 19.5Z" id="Oval" fill="#FFFFFF" fill-opacity="0" stroke="#000000" stroke-width="2" />
    <g id="Group" transform="translate(4.933319 4.933327)">
      <path d="M0 10.8667C0 4.86517 4.86517 0 10.8667 0" transform="translate(3.699982 3.699997)" id="Oval-3" fill="#FFFFFF" fill-opacity="0" stroke="#000000" stroke-width="2" />
      <path d="M0 7.16667C0 3.20863 3.20863 0 7.16667 0" transform="translate(7.399994 7.399994)" id="Oval-4" fill="#FFFFFF" fill-opacity="0" stroke="#000000" stroke-width="2" />
      <path d="M0 14.5667C0 6.52172 6.52172 0 14.5667 0" id="Oval-2" fill="#FFFFFF" fill-opacity="0" stroke="#000000" stroke-width="2" />
    </g>
    <g id="Group-2" transform="matrix(-1 -8.742278E-08 8.742278E-08 -1 34.56662 34.56666)">
      <path d="M0 10.8667C0 4.86517 4.86517 0 10.8667 0" transform="translate(3.699982 3.699997)" id="Oval-3" fill="#FFFFFF" fill-opacity="0" stroke="#000000" stroke-width="2" />
      <path d="M0 7.16667C0 3.20863 3.20863 0 7.16667 0" transform="translate(7.399994 7.399986)" id="Oval-4" fill="#FFFFFF" fill-opacity="0" stroke="#000000" stroke-width="2" />
      <path d="M0 14.5667C0 6.52172 6.52172 0 14.5667 0" id="Oval-2" fill="#FFFFFF" fill-opacity="0" stroke="#000000" stroke-width="2" />
    </g>
    <path d="M0 3.47246C0 1.55467 1.55455 0 3.47218 0C5.38981 0 6.94436 1.55467 6.94436 3.47246C6.94436 5.39024 5.38981 6.94491 3.47218 6.94491C1.55455 6.94491 0 5.39024 0 3.47246Z" transform="translate(16.05566 16.05508)" id="Oval-5" fill="#FFFFFF" fill-opacity="0" stroke="#000000" stroke-width="2" />
  </g>
</svg>