<?xml version="1.0" ?><!DOCTYPE svg  PUBLIC '-//W3C//DTD SVG 1.1//EN'  'http://www.w3.org/Graphics/SVG/1.1/DTD/svg11.dtd'><svg height="6.82666in" style="shape-rendering:geometricPrecision; text-rendering:geometricPrecision; image-rendering:optimizeQuality; fill-rule:evenodd; clip-rule:evenodd" viewBox="0 0 6.82666 6.82666" width="6.82666in" xml:space="preserve" xmlns="http://www.w3.org/2000/svg" xmlns:xlink="http://www.w3.org/1999/xlink"><defs><style type="text/css">
   <![CDATA[
    .fil0 {fill:#9E9E9E}
    .fil1 {fill:#FFFFFE}
   ]]>
  </style></defs><g id="Layer_x0020_1"><circle class="fil0" cx="3.41333" cy="3.41333" r="3.41333"/><g id="_442592048"><path class="fil1" d="M3.41333 2.68823c0.81772,0 1.48062,0.567059 1.48062,1.26656 0,0.699496 -0.662902,1.26656 -1.48062,1.26656 -0.817728,0 -1.48063,-0.567059 -1.48063,-1.26656 0,-0.6995 0.662898,-1.26656 1.48063,-1.26656zm-0.997177 1.3335c0.0530276,0 0.0960118,0.0429882 0.0960118,0.0960118 0,0.0530276 -0.0429843,0.0960118 -0.0960118,0.0960118 -0.0530236,0 -0.0960079,-0.0429843 -0.0960079,-0.0960118 0,-0.0530236 0.0429843,-0.0960118 0.0960079,-0.0960118zm1.9385 0c0.0530236,0 0.0960079,0.0429882 0.0960079,0.0960118 0,0.0530276 -0.0429843,0.0960118 -0.0960079,0.0960118 -0.0530276,0 -0.0960118,-0.0429843 -0.0960118,-0.0960118 0,-0.0530236 0.0429843,-0.0960118 0.0960118,-0.0960118zm-0.579201 0.218004c0.0019252,-0.0446496 -0.0327087,-0.0824094 -0.0773543,-0.0843307 -0.0446496,-0.0019252 -0.0824094,0.0327087 -0.0843307,0.0773543 -1.1811e-005,0.000255906 -0.00193701,0.0800787 -0.141256,0.0621732l0 -0.319539 0.103173 0c0.0448228,0 0.0811614,-0.0363386 0.0811614,-0.0811614 0,-0.0448228 -0.0363386,-0.0811614 -0.0811614,-0.0811614l-0.183638 0 -0.00069685 -1.1811e-005 -0.000700787 1.1811e-005 -0.183634 0c-0.0448228,0 -0.0811614,0.0363386 -0.0811614,0.0811614 0,0.0448228 0.0363386,0.0811614 0.0811614,0.0811614l0.103173 0 0 0.319539c-0.139323,0.0179055 -0.141244,-0.0619173 -0.141256,-0.0621732 -0.0019252,-0.0446457 -0.0396811,-0.0792795 -0.0843307,-0.0773543 -0.0446496,0.00192126 -0.0792795,0.0396811 -0.0773583,0.0843307 3.93701e-005,0.000846457 0.00917717,0.291909 0.384106,0.204665 0.374925,0.0872441 0.384063,-0.203819 0.384102,-0.204665zm-1.12443 -0.897114c0.099685,0 0.180496,0.080815 0.180496,0.1805 0,0.099685 -0.080811,0.180496 -0.180496,0.180496 -0.099685,0 -0.180496,-0.080811 -0.180496,-0.180496 0,-0.099685 0.080811,-0.1805 0.180496,-0.1805zm1.45685 0c0.0996811,0 0.180496,0.080815 0.180496,0.1805 0,0.099685 -0.080815,0.180496 -0.180496,0.180496 -0.099685,0 -0.1805,-0.080811 -0.1805,-0.180496 0,-0.099685 0.080815,-0.1805 0.1805,-0.1805z" id="_442593032"/><polygon class="fil1" id="_442593056" points="3.51293,2.69167 3.93661,2.25654 3.57983,2.25654 4.06148,1.65002 3.23916,1.60531 2.76519,2.42626 3.25516,2.42626 3.08605,2.71928 3.02983,2.96934 "/><path class="fil1" d="M2.22435 3.25296l0.29185 -0.258831c0.00415748,-0.174406 -0.0353819,-0.894819 -0.941563,-1.18646 0,0 -0.233657,1.0181 0.649713,1.4453z" id="_442592312"/><path class="fil1" d="M4.31047 2.99462l0.295547 0.256539c0.879012,-0.428248 0.646008,-1.4435 0.646008,-1.4435 -0.907043,0.291921 -0.945795,1.01344 -0.941555,1.18696z" id="_442592120"/></g></g></svg>