<?xml version="1.0" encoding="utf-8"?>
<svg width="11px" height="17px" viewBox="0 0 11 17" version="1.1" xmlns:xlink="http://www.w3.org/1999/xlink" xmlns="http://www.w3.org/2000/svg">
  <desc>Created with Lunacy</desc>
  <path d="M2.20003 0L6.97147 0C7.21383 0 7.4684 0.187686 7.54006 0.419209L9.87025 7.94769C9.94191 8.17922 9.80353 8.3669 9.56117 8.3669L6.44995 8.3669C6.32904 8.3669 6.25782 8.46118 6.29085 8.57749L8.2795 15.5779C8.34573 15.811 8.28133 15.843 8.13568 15.6493L0.26374 5.18082C0.11808 4.98712 0.196471 4.83009 0.43883 4.83009L3.21372 4.83009C3.33462 4.83009 3.40058 4.73747 3.36105 4.62321L1.9047 0.414702C1.82545 0.185668 1.95767 0 2.20003 0Z" transform="translate(0.25 0.25)" id="Path-5" fill="#FFFFFF" stroke="none" />
</svg>