<?xml version="1.0" encoding="utf-8"?>
<svg width="15px" height="16px" viewBox="0 0 15 16" version="1.1" xmlns:xlink="http://www.w3.org/1999/xlink" xmlns="http://www.w3.org/2000/svg">
  <desc>Created with Lunacy</desc>
  <path d="M2.08688 1.24638C2.14996 2.36628 2.42003 7.50009 2.07453 7.57884C1.94553 7.60825 1.91754 5.89536 1.92051 4.23851C0.730221 5.38133 0 6.9255 0 8.625C0 12.1458 3.13401 15 7 15C10.866 15 14 12.1458 14 8.625C14 8.48069 13.9947 8.33751 13.9844 8.19559C13.9947 8.10806 14 8.02143 14 7.9363L14 3.65355C14 2.74032 13.2597 2 12.3465 2L12.3445 2C12.0168 2 11.7115 2.09528 11.4545 2.25965C11.3449 2.18949 11.2264 2.13192 11.1011 2.08897C10.8704 1.45374 10.2614 1 9.54644 1L9.54445 1C9.20009 1 8.88031 1.10526 8.61555 1.28537C8.50526 1.26219 8.39092 1.25 8.27374 1.25L8.27174 1.25L8.26582 1.25001C8.01249 0.661802 7.42756 0.25 6.74646 0.25L6.74446 0.25C6.26528 0.25 5.83371 0.453821 5.53171 0.779495C5.43051 0.760135 5.32602 0.75 5.21917 0.75L5.21717 0.75C5.17119 0.75 5.12565 0.751877 5.08062 0.755558C4.78598 0.30085 4.27409 0 3.69192 0L3.68992 0C2.9172 0 2.26827 0.530038 2.08688 1.24638Z" transform="translate(0.25 0.25)" id="Oval-9" fill="#FFFFFF" fill-rule="evenodd" stroke="none" />
</svg>