<?xml version="1.0" encoding="utf-8"?>
<svg width="16px" height="14px" viewBox="0 0 16 14" version="1.1" xmlns:xlink="http://www.w3.org/1999/xlink" xmlns="http://www.w3.org/2000/svg">
  <desc>Created with Lunacy</desc>
  <path d="M5.23569 13C7.43306 13 9.31426 11.7788 10.0909 10.0475C10.1004 10.0264 6.97286 10.8603 7.07259 10.5655C7.11712 10.4339 9.0343 9.73352 10.4311 8.91661C11.2339 8.44709 11.6036 7.45312 11.6036 7.45312C11.6036 7.45312 10.2511 8.10981 9.56729 8.27641C8.1894 8.61214 6.9765 8.57598 6.9765 8.541C6.9765 8.46536 8.99051 8.08269 11.7898 6.37688C13.1064 5.57453 13.4641 4.19247 13.4641 4.19247C13.4641 4.19247 12.0165 5.05473 11.1414 5.33941C9.06612 6.01451 7.17233 6.21794 7.17233 6.12658C7.17233 5.93101 8.83893 5.4727 10.6059 4.61651C11.5247 4.17134 12.3203 3.58973 13.2424 2.94297C14.7512 1.88473 15 0 15 0C15 0 13.5119 0.959768 12.7858 1.2785C9.78929 2.59369 7.14343 3.28356 5.23569 3.43293C2.35594 3.6584 0 5.66764 0 8.27641C0 10.8852 2.3441 13 5.23569 13Z" transform="translate(0.25 0.25)" id="Oval-2" fill="#FFFFFF" stroke="none" />
</svg>