<?xml version="1.0" encoding="utf-8"?>
<svg width="21px" height="21px" viewBox="0 0 21 21" version="1.1" xmlns:xlink="http://www.w3.org/1999/xlink" xmlns="http://www.w3.org/2000/svg">
  <desc>Created with Lunacy</desc>
  <path d="M6.31222 14.9971C6.24866 14.999 6.18485 15 6.12082 15C2.74038 15 0 12.2596 0 8.87918C0 5.49875 5.2726 0 5.2726 0C5.2726 0 12.2416 5.49875 12.2416 8.87918C12.2416 11.8814 10.0801 14.3788 7.22839 14.9L6.91969 11.8735L8.62299 9.23225L6.67248 10.8282L6.65197 8.55388L7.65375 6.99009L6.33899 7.70402L5.52349 4.85984L5.69903 7.921L4.35565 7.69193L5.84992 8.79392L5.97787 10.9317L4.07873 9.96428L5.98485 11.8704L6.31222 14.9971Z" transform="matrix(0.7071068 0.7071068 -0.7071068 0.7071068 11.31369 0.7071075)" id="Oval" fill="#FFFFFF" fill-rule="evenodd" stroke="none" />
</svg>