<?xml version="1.0" encoding="utf-8"?>
<svg width="16px" height="12px" viewBox="0 0 16 12" version="1.1" xmlns:xlink="http://www.w3.org/1999/xlink" xmlns="http://www.w3.org/2000/svg">
  <desc>Created with Lunacy</desc>
  <path d="M3.34101 10.9572L3.33901 10.9572C3.30509 10.9572 3.28676 10.9312 3.29808 10.8993L7.08861 0.188659C7.12548 0.0844654 7.24497 0 7.3555 0L11.0988 0C11.2094 0 11.3285 0.0846042 11.3648 0.188969L15.0533 10.7682C15.0897 10.8726 15.0296 10.9572 14.9191 10.9572L3.34101 10.9572ZM2.35605 11L0.141928 11C0.0314019 11 -0.0267685 10.9161 0.0120005 10.8126L2.7606 3.47454C2.79937 3.37104 2.9204 3.28713 3.03092 3.28713L5.14963 3.28713C5.26016 3.28713 5.31924 3.37138 5.2816 3.4753L2.62433 10.8118C2.58669 10.9158 2.46658 11 2.35605 11Z" transform="translate(0.25 0.25)" id="Path-6" fill="#FFFFFF" fill-rule="evenodd" stroke="none" />
</svg>