<?xml version="1.0" encoding="utf-8"?>
<svg width="15px" height="12px" viewBox="0 0 15 12" version="1.1" xmlns:xlink="http://www.w3.org/1999/xlink" xmlns="http://www.w3.org/2000/svg">
  <desc>Created with Lunacy</desc>
  <path d="M12.4052 7.37921L10.9152 5.34967C10.8558 5.2688 10.8214 5.12308 10.8384 5.0242L11.6756 0.141892C11.6891 0.0635272 11.7644 0 11.8439 0L11.8459 0C11.9255 0 12.0093 0.0614621 12.0333 0.137279L13.9453 6.19122C13.9755 6.28689 13.9359 6.4145 13.8568 6.47624L12.6559 7.41385C12.5768 7.47559 12.4646 7.46008 12.4052 7.37921ZM3.20716 9.55035C3.1246 9.60735 2.98037 9.62828 2.88501 9.5971L0.172662 8.71025C0.0773033 8.67907 0 8.57247 0 8.47214L0 5.71425C0 5.61392 0.0519043 5.46997 0.115932 5.39274L4.44952 0.164924C4.51354 0.0876849 4.64678 0.0250702 4.74711 0.0250702L10.4342 0.0250702C10.5346 0.0250702 10.6039 0.105512 10.5891 0.204743L9.90996 4.76173C9.89517 4.86096 9.81625 4.98761 9.73369 5.04461L3.20716 9.55035ZM7.49095 10.9434L4.32706 9.90704L9.99559 6.02838C10.0784 5.97172 10.1909 5.9933 10.2468 6.07657L11.5377 7.99759C11.5937 8.08086 11.573 8.19577 11.4915 8.25424L7.81119 10.8941C7.72967 10.9526 7.58629 10.9747 7.49095 10.9434Z" transform="translate(0.25 0.25)" id="Path-8" fill="#FFFFFF" fill-rule="evenodd" stroke="none" />
</svg>