<?xml version="1.0" encoding="utf-8"?>
<svg width="15px" height="17px" viewBox="0 0 15 17" version="1.1" xmlns:xlink="http://www.w3.org/1999/xlink" xmlns="http://www.w3.org/2000/svg">
  <desc>Created with Lunacy</desc>
  <path d="M7.77193 7.96505C7.88035 7.8989 7.97236 7.76033 8.04657 7.60633C9.02298 8.00542 9.70911 8.9484 9.70911 10.0481C9.70911 11.5091 8.49819 12.6934 7.00444 12.6934C6.39125 12.6934 5.82573 12.4938 5.37206 12.1575C5.22325 12.087 5.10082 12.0193 5.00063 11.9639C4.84523 11.878 4.74333 11.8217 4.67952 11.8305C4.49297 11.8562 4.54714 12.0278 4.59634 12.1837C4.62977 12.2896 4.66091 12.3883 4.61271 12.429C4.56225 12.4716 4.39888 12.3158 4.20798 12.1338C3.94811 11.886 3.63723 11.5896 3.49065 11.6787C3.37473 11.7491 3.48727 11.94 3.62501 12.1738L3.63523 12.1911C3.69343 12.29 3.76086 12.3906 3.8224 12.4824C3.94748 12.669 4.04824 12.8193 3.99781 12.8448C3.93689 12.8755 3.51234 12.589 3.15454 12.1911C3.01644 12.0376 2.88267 11.8711 2.75838 11.7165C2.48628 11.3779 2.2596 11.0959 2.13236 11.1293C1.97928 11.1695 2.09508 11.4852 2.26522 11.7891C2.34478 11.9312 2.43839 12.0759 2.51943 12.2011C2.64545 12.396 2.74111 12.5438 2.7064 12.562C2.6596 12.5865 2.24769 12.1848 1.96793 11.6787C1.62155 11.052 1.39091 10.2879 1.27542 10.2459C1.06665 10.1699 1.06665 10.5956 1.15038 11.21C1.16131 11.2901 1.17757 11.3742 1.19761 11.4598C2.00962 14.087 4.50401 16 7.45523 16C11.0651 16 13.9915 13.1379 13.9915 9.60723C13.9915 6.24688 11.3406 3.49209 7.9725 3.2342C7.97674 3.07588 8.05936 2.76197 8.05936 2.76197C8.05936 2.76197 8.65397 1.32335 8.68539 1.01594C8.68747 0.995531 8.68995 0.973358 8.69258 0.949743C8.72963 0.617585 8.79852 0 8.26722 0C7.87454 0 7.77258 0.404261 7.50876 0.733719C6.98163 1.39199 6.09524 2.21403 5.59264 2.65197C4.04713 3.99869 2.54407 4.99634 2.35938 5.17638C1.92418 5.60063 0.363801 8.4152 0.363801 8.4152C0.363801 8.4152 -0.140809 9.3182 0.0385502 9.50134C0.21791 9.68447 0.650433 9.6425 0.650433 9.6425C0.650433 9.6425 6.46108 8.30948 6.98131 8.20433C7.50154 8.09919 7.45352 8.15931 7.77193 7.96505ZM3.66359 6.25199C3.3517 6.54847 2.83441 7.25614 2.83441 7.25614C2.83441 7.25614 3.79579 7.31536 4.32527 6.81206C4.85475 6.30876 4.73343 5.45103 4.73343 5.45103C4.73343 5.45103 3.97549 5.95552 3.66359 6.25199Z" transform="translate(0.25 0.25)" id="Oval-8" fill="#FFFFFF" fill-rule="evenodd" stroke="none" />
</svg>