<?xml version="1.0" encoding="utf-8"?>
<svg width="12px" height="16px" viewBox="0 0 12 16" version="1.1" xmlns:xlink="http://www.w3.org/1999/xlink" xmlns="http://www.w3.org/2000/svg">
  <desc>Created with Lunacy</desc>
  <path d="M8.34022 11.44C8.52326 10.7708 8.16798 9.39488 8.16798 9.39488C8.16798 9.39488 7.91031 10.5157 7.50766 10.93C7.16417 11.2834 6.74334 11.5285 6.13977 11.5929C6.63323 11.3532 6.97261 10.8534 6.97261 10.2757C6.97261 9.46487 6.3039 8.80752 5.47901 8.80752C4.65412 8.80752 3.98541 9.46487 3.98541 10.2757C3.98541 10.4972 4.0353 10.7072 4.12463 10.8956C3.60869 10.4845 3.52755 9.82554 3.52755 9.82554C3.52755 9.82554 2.95146 12.2174 4.53889 13.3426C6.12632 14.4678 9.23601 13.5006 9.23601 13.5006C9.23601 13.5006 4.78584 16.6319 1.48822 13.2239C-1.35243 10.2882 0.746799 6.42324 0.746799 6.42324C0.746799 6.42324 0.656138 6.78178 0.656138 7.19799C0.656138 7.6142 0.881797 7.93087 0.881797 7.93087C0.881797 7.93087 1.55493 6.51202 2.0788 5.935C2.95627 4.96853 4.22751 4.32522 4.72605 3.76777C5.92031 2.43238 5.18804 0 5.18804 0C5.18804 0 6.5343 1.18684 6.91015 2.71965C7.05341 3.30394 6.96125 3.96874 6.87883 4.56323C6.74503 5.52832 6.63692 6.30814 7.60343 6.25754C9.1653 6.17577 7.80809 3.76777 7.80809 3.76777C7.80809 3.76777 11.351 5.6299 11.0863 8.88668C10.8216 12.1435 7.21373 12.8839 7.21373 12.8839C7.21373 12.8839 8.15718 12.1093 8.34022 11.44Z" transform="translate(0.25 0.25)" id="Path-2" fill="#FFFFFF" fill-rule="evenodd" stroke="none" />
</svg>