<?xml version="1.0" encoding="utf-8"?>
<svg width="16px" height="14px" viewBox="0 0 16 14" version="1.1" xmlns:xlink="http://www.w3.org/1999/xlink" xmlns="http://www.w3.org/2000/svg">
  <desc>Created with Lunacy</desc>
  <path d="M3.50873 12.6795L0.0778365 6.8242C-0.0258946 6.64716 -0.025965 6.3601 0.0776794 6.18302L3.50889 0.320634C3.61253 0.143553 3.86289 0 4.06807 0L10.8697 0C11.0748 0 11.3245 0.143954 11.4273 0.32153L14.8198 6.18212C14.9226 6.3597 14.9226 6.64757 14.8197 6.82509L11.4275 12.6786C11.3246 12.8561 11.0748 13 10.8697 13L4.06807 13C3.86289 13 3.61246 12.8565 3.50873 12.6795ZM10.9492 6.5C10.9492 8.433 9.38218 10 7.44919 10C5.51619 10 3.94919 8.433 3.94919 6.5C3.94919 4.567 5.51619 3 7.44919 3C9.38218 3 10.9492 4.567 10.9492 6.5Z" transform="translate(0.25 0.25)" id="Path-7" fill="#FFFFFF" fill-rule="evenodd" stroke="none" />
</svg>