<?xml version="1.0" encoding="utf-8"?>
<svg width="11px" height="16px" viewBox="0 0 11 16" version="1.1" xmlns:xlink="http://www.w3.org/1999/xlink" xmlns="http://www.w3.org/2000/svg">
  <desc>Created with Lunacy</desc>
  <path d="M10 10.4258C10 13.1769 7.76142 15.4071 5 15.4071C2.23858 15.4071 0 13.1769 0 10.4258C0 7.83966 1.97833 0.887844 4.50958 0.0639744C4.77164 -0.0213203 5.22836 -0.0213203 5.49042 0.0639744C8.02167 0.887845 10 7.83966 10 10.4258ZM4.1665 13.8101C1.62926 13.255 2.06344 10.4444 2.06344 10.4444C2.06344 10.4444 2.75628 12.141 4.43759 12.6906C6.11891 13.2402 8.15074 12.4342 8.15074 12.4342C8.15074 12.4342 6.70373 14.3653 4.1665 13.8101Z" transform="translate(0.25 0.25)" id="Oval-5" fill="#FFFFFF" fill-rule="evenodd" stroke="none" />
</svg>